<?xml version="1.0" standalone="no"?>
<!DOCTYPE svg PUBLIC "-//W3C//DTD SVG 20010904//EN"
 "http://www.w3.org/TR/2001/REC-SVG-20010904/DTD/svg10.dtd">
<svg version="1.0" xmlns="http://www.w3.org/2000/svg"
 width="423.000000pt" height="423.000000pt" viewBox="0 0 423.000000 423.000000"
 preserveAspectRatio="xMidYMid meet">
<metadata>
Created by potrace 1.14, written by Peter Selinger 2001-2017
</metadata>
<g transform="translate(0.000000,423.000000) scale(0.100000,-0.100000)"
fill="#000000" stroke="none">
<path d="M2490 4160 c0 -6 -12 -37 -26 -68 -15 -31 -27 -63 -27 -69 0 -7 -4
-13 -9 -13 -4 0 -8 -9 -8 -20 0 -11 -4 -20 -10 -20 -5 0 -9 -3 -8 -7 2 -8 -26
-73 -59 -135 -8 -16 -11 -28 -7 -28 3 0 1 -7 -6 -15 -7 -9 -11 -17 -9 -19 9
-9 85 -39 93 -37 4 1 17 -1 28 -4 17 -6 18 -13 12 -53 -3 -26 -10 -51 -13 -57
-4 -5 -7 -17 -6 -25 1 -8 -3 -26 -8 -40 -4 -13 -11 -43 -14 -65 -3 -22 -9 -48
-14 -57 -11 -21 -11 -28 0 -28 5 0 15 12 22 28 12 22 81 135 211 340 9 15 17
30 17 33 1 4 -32 14 -71 23 -117 28 -111 24 -104 59 3 18 7 55 10 82 8 89 17
160 22 177 3 9 0 19 -6 23 -5 3 -10 1 -10 -5z"/>
<path d="M1190 4120 c0 -6 22 -52 49 -103 82 -155 213 -408 254 -489 21 -43
40 -78 41 -78 3 0 19 14 150 128 27 23 52 42 56 42 4 0 54 -55 110 -122 56
-68 106 -124 110 -126 5 -2 -6 39 -24 90 -18 51 -34 98 -36 103 -1 6 -4 15 -5
20 -2 6 -11 35 -21 65 -10 30 -19 57 -19 60 -7 29 -48 159 -56 172 -5 10 -9
25 -9 33 0 8 -2 15 -5 15 -2 0 -52 -48 -111 -107 l-106 -106 -26 29 c-15 16
-56 63 -92 104 -88 102 -120 137 -155 176 -16 18 -43 49 -60 68 -30 36 -45 44
-45 26z"/>
<path d="M3273 3700 c-12 -5 -30 -22 -40 -37 -10 -15 -20 -30 -23 -33 -3 -3
-24 -34 -48 -69 -36 -55 -42 -71 -38 -104 4 -36 -13 -78 -44 -107 -27 -25
-110 -169 -220 -381 l-86 -167 78 -38 c43 -21 79 -36 81 -33 3 2 48 91 102
197 53 106 102 198 108 205 7 7 17 20 22 29 60 95 112 167 120 166 34 -2 51 6
81 39 19 20 34 42 34 49 0 7 4 14 8 16 12 5 77 109 76 122 -3 45 -21 70 -76
107 -63 43 -99 54 -135 39z"/>
<path d="M2231 3278 c-25 -14 -90 -120 -91 -150 0 -11 18 -25 48 -39 112 -53
95 -57 137 28 26 55 35 83 30 102 -14 54 -77 84 -124 59z"/>
<path d="M1265 3161 c-5 -9 -9 -34 -20 -116 -2 -16 -4 -31 -6 -32 -2 -4 -6
-20 -8 -33 -1 -6 -10 -6 -26 0 -14 5 -25 7 -25 4 0 -2 -8 0 -17 5 -10 5 -34
12 -53 15 -19 3 -53 11 -75 17 -22 5 -52 12 -66 14 -15 3 -45 11 -68 19 -23 7
-41 11 -41 7 0 -6 62 -40 75 -41 5 0 114 -53 147 -71 10 -5 24 -9 32 -9 7 0
19 -7 26 -15 7 -8 16 -12 21 -9 5 3 9 0 9 -7 0 -7 3 -10 6 -6 4 3 38 -10 76
-29 69 -35 88 -36 88 -7 0 9 7 43 16 75 l17 58 61 -6 c33 -3 84 -7 111 -9 28
-2 50 -4 50 -5 0 -1 29 -3 65 -5 36 -3 80 -6 98 -9 50 -6 27 8 -73 44 -49 18
-106 40 -125 48 -19 9 -40 16 -45 18 -17 3 -208 75 -227 85 -10 5 -19 5 -23 0z"/>
<path d="M2468 3155 c-17 -10 -40 -42 -62 -85 l-34 -71 78 -39 78 -39 36 73
c24 52 34 82 30 102 -10 57 -75 87 -126 59z"/>
<path d="M1999 3121 c-12 -9 -155 -282 -318 -606 -321 -639 -292 -593 -381
-611 -13 -3 -30 -10 -37 -16 -7 -6 -13 -8 -13 -4 0 3 -12 1 -27 -5 -28 -11
-55 -18 -83 -24 -8 -1 -22 -5 -30 -8 -8 -4 -28 -9 -45 -12 -97 -20 -131 -10
-140 40 -4 16 -10 39 -16 50 -5 11 -18 45 -28 75 l-19 55 42 40 c43 40 73 99
56 110 -5 3 16 55 46 115 57 116 68 159 51 200 -17 40 -59 80 -84 80 -17 0
-26 8 -33 28 -16 43 -25 56 -58 78 -38 26 -99 25 -140 -2 -15 -10 -31 -17 -36
-16 -17 5 -48 -11 -92 -49 -25 -21 -51 -39 -58 -39 -18 0 -62 -50 -71 -80 -4
-14 -17 -36 -30 -50 -64 -71 -50 -211 31 -295 23 -25 51 -45 62 -45 21 0 32
-18 32 -50 0 -25 52 -60 96 -65 43 -4 45 -5 69 -75 10 -30 21 -57 25 -60 3 -3
19 -40 36 -84 38 -103 58 -117 164 -116 72 1 85 3 150 22 100 29 170 45 170
39 0 -3 -32 -71 -72 -150 -39 -79 -72 -153 -74 -165 -1 -12 -3 -25 -5 -31 -7
-23 15 -112 34 -140 38 -54 69 -74 279 -178 114 -56 207 -105 207 -109 1 -4
-17 -19 -40 -35 -122 -84 -246 -184 -330 -266 -49 -46 -50 -47 -74 -31 -14 9
-25 13 -25 9 0 -4 -6 -3 -12 3 -20 16 -78 -12 -78 -38 0 -35 -25 -22 -59 30
-18 27 -45 57 -62 67 -16 9 -29 20 -29 24 0 4 -10 10 -22 14 -13 4 -27 9 -33
11 -53 18 -145 24 -162 11 -7 -5 -13 -7 -13 -3 0 4 -17 -2 -38 -13 -76 -40
-119 -102 -125 -186 -6 -73 31 -156 97 -215 22 -20 36 -45 41 -68 8 -44 39
-108 68 -141 12 -13 48 -36 80 -51 46 -22 72 -28 125 -28 80 0 125 20 174 77
33 39 94 149 90 163 -1 4 21 19 48 34 36 20 52 36 60 60 11 32 8 81 -6 118 -5
14 7 31 47 68 69 64 254 208 267 208 6 0 12 3 14 8 5 10 66 52 77 52 5 0 11 3
13 8 2 4 14 14 28 23 24 16 28 15 90 -16 36 -18 82 -38 103 -45 21 -6 52 -25
70 -42 18 -16 57 -41 87 -55 46 -22 71 -27 159 -29 57 -1 116 2 132 8 25 9 31
6 58 -24 25 -29 35 -33 78 -33 26 0 55 3 63 5 11 4 14 -3 11 -28 -6 -76 41
-150 117 -183 143 -62 321 44 348 207 11 64 10 77 -3 123 -17 59 -47 104 -95
145 -30 26 -41 43 -43 70 -12 120 -143 199 -266 160 -64 -20 -119 -82 -119
-134 0 -16 -6 -21 -22 -20 -38 3 -45 1 -76 -25 -17 -15 -34 -43 -42 -70 -7
-25 -18 -45 -24 -45 -6 -1 -28 -3 -49 -6 -32 -5 -126 9 -149 23 -4 2 4 20 18
40 13 20 93 173 177 340 121 242 158 308 179 319 15 8 29 14 30 14 15 1 48 14
48 19 0 4 6 8 13 8 6 0 41 14 75 31 35 18 68 30 72 27 5 -3 12 1 17 8 8 13 34
27 62 33 7 1 18 7 24 13 6 6 19 11 29 11 10 0 18 4 18 9 0 4 21 15 48 23 54
18 73 12 99 -32 9 -17 21 -30 25 -30 4 0 8 -5 8 -11 0 -5 18 -37 40 -69 42
-62 49 -87 26 -96 -15 -6 -33 -43 -41 -83 -3 -17 4 -31 24 -50 22 -21 26 -31
20 -49 -5 -12 -6 -22 -2 -22 3 0 0 -6 -6 -13 -6 -8 -8 -17 -5 -20 3 -3 2 -12
-2 -19 -15 -23 -13 -151 2 -180 21 -40 54 -68 81 -68 13 0 23 -5 23 -11 0 -16
39 -49 59 -50 31 -3 46 -1 79 13 22 8 35 9 40 3 4 -6 13 -10 20 -9 6 1 21 2
33 3 11 0 33 15 49 33 16 18 41 34 56 35 15 2 33 11 41 19 8 7 19 14 24 14 5
0 8 3 8 8 -4 24 4 43 32 73 16 19 35 45 41 59 13 31 17 100 6 106 -4 3 -8 12
-8 21 0 18 -71 143 -82 143 -3 0 -23 16 -43 36 -39 37 -72 54 -109 54 -16 0
-32 12 -47 35 -24 35 -37 40 -96 37 -30 -2 -37 4 -70 55 -44 67 -60 88 -90
120 -13 13 -23 26 -23 29 0 3 -17 21 -37 40 -38 36 -103 70 -103 54 0 -4 -9
-6 -20 -3 -22 6 -97 -22 -235 -88 -49 -23 -92 -41 -94 -40 -2 1 -7 -1 -10 -6
-3 -4 -21 -16 -39 -26 l-33 -19 21 44 c12 23 40 79 62 123 22 44 51 100 63
125 13 25 56 113 95 195 40 83 92 190 116 239 56 114 57 138 4 171 -22 14 -42
25 -46 25 -3 0 -130 61 -282 136 -363 179 -633 310 -654 317 -9 3 -27 -2 -39
-12z"/>
<path d="M2901 2198 c-46 -93 -80 -172 -77 -176 4 -3 19 1 34 10 18 11 47 56
90 139 61 121 74 167 50 186 -10 8 -34 -32 -97 -159z"/>
</g>
</svg>
